# xmcd CD database file
#
# Track frame offsets:
#	150
#	15215
#	30190
#	45794
#	54966
#	71829
#	85965
#	102881
#	119879
#	137003
#	151337
#	168228
#	183416
#	200138
#	215765
#	237068
#	253990
#	269735
#	283838
#	298836
#
# Disc length: 4194 seconds
#
# Revision: 0
# Processed by: cddbd v1.5.2PL0 Copyright (c) Steve Scherf et al.
# Submitted via: CDex 1.51
#
DISCID=29106014
DTITLE=Djogani - Compilation Novi dani and Bonus tracks
DYEAR=1900
DGENRE=Yu Dance
TTITLE0=92
TTITLE1=Babaroga
TTITLE2=Imam sve
TTITLE3=Intro - Slaba
TTITLE4=Otpisani
TTITLE5=Ponekad
TTITLE6=Povratak sa marsa
TTITLE7=Predi me
TTITLE8=Prekinimo ovaj film
TTITLE9=Slaba na tebe
TTITLE10=Idemo na mars
TTITLE11=Da to je to
TTITLE12=Ako si jak
TTITLE13=Zagrli me
TTITLE14=Secam se
TTITLE15=Tebi
TTITLE16=Hajde jano
TTITLE17=Tebi trebam
TTITLE18=Hiljadu dana
TTITLE19=Kazi mi
EXTD=
EXTT0=
EXTT1=
EXTT2=
EXTT3=
EXTT4=
EXTT5=
EXTT6=
EXTT7=
EXTT8=
EXTT9=
EXTT10=
EXTT11=
EXTT12=
EXTT13=
EXTT14=
EXTT15=
EXTT16=
EXTT17=
EXTT18=
EXTT19=
PLAYORDER=
